<svg xmlns="http://www.w3.org/2000/svg" xmlns:xlink="http://www.w3.org/1999/xlink" width="2643.998" height="1422.069" viewBox="0 0 2643.998 1422.069">
  <defs>
    <style>
      .cls-1 {
        fill: url(#linear-gradient);
      }

      .cls-2 {
        fill: url(#linear-gradient-2);
      }

      .cls-3 {
        fill: url(#radial-gradient);
      }

      .cls-4 {
        fill: #fff;
      }

      .cls-5 {
        fill: #20937c;
      }

      .cls-6 {
        filter: url(#Ellipse_7);
      }

      .cls-7 {
        filter: url(#Ellipse_6);
      }

      .cls-8 {
        filter: url(#Ellipse_5);
      }

      .cls-9 {
        filter: url(#Path_8);
      }

      .cls-10 {
        filter: url(#Path_7);
      }
    </style>
    <linearGradient id="linear-gradient" x1="0.982" y1="0.559" x2="-0.14" y2="0.559" gradientUnits="objectBoundingBox">
      <stop offset="0" stop-color="#20937c"/>
      <stop offset="1" stop-color="#11a48e"/>
    </linearGradient>
    <filter id="Path_7" x="349.934" y="0" width="2294.064" height="1243.143" filterUnits="userSpaceOnUse">
      <feOffset dx="6" dy="6" input="SourceAlpha"/>
      <feGaussianBlur stdDeviation="10" result="blur"/>
      <feFlood flood-opacity="0.4"/>
      <feComposite operator="in" in2="blur"/>
      <feComposite in="SourceGraphic"/>
    </filter>
    <linearGradient id="linear-gradient-2" x1="0" y1="0.442" x2="1.149" y2="0.442" xlink:href="#linear-gradient"/>
    <filter id="Path_8" x="0" y="178.928" width="2294.064" height="1243.142" filterUnits="userSpaceOnUse">
      <feOffset dx="6" dy="6" input="SourceAlpha"/>
      <feGaussianBlur stdDeviation="10" result="blur-2"/>
      <feFlood flood-opacity="0.4"/>
      <feComposite operator="in" in2="blur-2"/>
      <feComposite in="SourceGraphic"/>
    </filter>
    <radialGradient id="radial-gradient" cx="0.5" cy="0.5" r="0.5" xlink:href="#linear-gradient"/>
    <filter id="Ellipse_5" x="1002.36" y="391.396" width="627.276" height="627.276" filterUnits="userSpaceOnUse">
      <feOffset dx="12" dy="12" input="SourceAlpha"/>
      <feGaussianBlur stdDeviation="30" result="blur-3"/>
      <feFlood flood-opacity="0.4" result="color"/>
      <feComposite operator="out" in="SourceGraphic" in2="blur-3"/>
      <feComposite operator="in" in="color"/>
      <feComposite operator="in" in2="SourceGraphic"/>
    </filter>
    <filter id="Ellipse_6">
      <feOffset dx="12" dy="12" input="SourceAlpha"/>
      <feGaussianBlur stdDeviation="25" result="blur-4"/>
      <feFlood flood-color="#20937c" result="color-2"/>
      <feComposite operator="out" in="SourceGraphic" in2="blur-4"/>
      <feComposite operator="in" in="color-2"/>
      <feComposite operator="in" in2="SourceGraphic"/>
    </filter>
    <filter id="Ellipse_7" x="1363.181" y="514.24" width="172.981" height="172.981" filterUnits="userSpaceOnUse">
      <feOffset dx="12" dy="12" input="SourceAlpha"/>
      <feGaussianBlur stdDeviation="10" result="blur-5"/>
      <feFlood flood-opacity="0.161"/>
      <feComposite operator="in" in2="blur-5"/>
      <feComposite in="SourceGraphic"/>
    </filter>
  </defs>
  <g id="Group_32" data-name="Group 32" transform="translate(23.999 23.999)">
    <g id="Group_8" data-name="Group 8">
      <g class="cls-10" transform="matrix(1, 0, 0, 1, -24, -24)">
        <path id="Path_7-2" data-name="Path 7" class="cls-1" d="M-11414.506-12467.937s-272.653,155.072-156.776,514.634c59.644,124.4,139.736,253.485,398.759,301.626s639.033-102.246,797.514-175.522,489.075-337.41,489.075-337.41-483.11-564.906-1124.7-651.814c-621.141-76.685-1109.363,357.859-1109.363,357.859s564.905-360.416,1155.375-222.385c544.457,135.477,881.867,516.34,881.867,516.34s-403.87,334-825.633,412.391c-382.568,66.459-516.34-90.317-518.9-90.317C-11738.282-12173.131-11414.506-12467.937-11414.506-12467.937Z" transform="translate(12493.93 12849.5)"/>
      </g>
      <g class="cls-9" transform="matrix(1, 0, 0, 1, -24, -24)">
        <path id="Path_8-2" data-name="Path 8" class="cls-2" d="M-10591.43-11999.918s272.655-155.073,156.776-514.636c-59.643-124.4-139.734-253.484-398.757-301.624s-639.034,102.244-797.515,175.521S-12120-12303.246-12120-12303.246s483.11,564.905,1124.7,651.814c621.141,76.684,1109.363-357.86,1109.363-357.86s-564.907,360.416-1155.375,222.385c-544.456-135.477-881.867-516.339-881.867-516.339s403.869-334,825.633-412.391c382.568-66.46,516.34,90.317,518.9,90.317C-10267.65-12294.726-10591.43-11999.918-10591.43-11999.918Z" transform="translate(12144 13028.43)"/>
      </g>
    </g>
    <g id="Group_9" data-name="Group 9" transform="translate(978.362 367.398)">
      <g data-type="innerShadowGroup">
        <ellipse id="Ellipse_5-2" data-name="Ellipse 5" class="cls-3" cx="313.638" cy="313.638" rx="313.638" ry="313.638"/>
        <g class="cls-8" transform="matrix(1, 0, 0, 1, -1002.36, -391.4)">
          <ellipse id="Ellipse_5-3" data-name="Ellipse 5" class="cls-4" cx="313.638" cy="313.638" rx="313.638" ry="313.638" transform="translate(1002.36 391.4)"/>
        </g>
      </g>
      <g data-type="innerShadowGroup">
        <ellipse id="Ellipse_6-2" data-name="Ellipse 6" class="cls-5" cx="172.795" cy="172.795" rx="172.795" ry="172.795" transform="translate(140.843 140.843)"/>
        <g class="cls-7" transform="matrix(1, 0, 0, 1, -1002.36, -391.4)">
          <ellipse id="Ellipse_6-3" data-name="Ellipse 6" class="cls-4" cx="172.795" cy="172.795" rx="172.795" ry="172.795" transform="translate(1143.2 532.24)"/>
        </g>
      </g>
      <g class="cls-6" transform="matrix(1, 0, 0, 1, -1002.36, -391.4)">
        <ellipse id="Ellipse_7-2" data-name="Ellipse 7" class="cls-4" cx="56.491" cy="56.491" rx="56.491" ry="56.491" transform="translate(1381.18 532.24)"/>
      </g>
    </g>
  </g>
</svg>
