<svg xmlns="http://www.w3.org/2000/svg" xmlns:xlink="http://www.w3.org/1999/xlink" width="2650" height="1863.605" viewBox="0 0 2650 1863.605">
  <defs>
    <style>
      .cls-1 {
        fill: url(#linear-gradient);
      }

      .cls-2 {
        fill: url(#linear-gradient-2);
      }

      .cls-3 {
        fill: url(#radial-gradient);
      }

      .cls-4 {
        fill: #fff;
      }

      .cls-5 {
        fill: #2a6604;
      }

      .cls-6 {
        fill: #437221;
      }

      .cls-7 {
        filter: url(#Path_16);
      }

      .cls-8 {
        filter: url(#Ellipse_7);
      }

      .cls-9 {
        filter: url(#Ellipse_6);
      }

      .cls-10 {
        filter: url(#Ellipse_5);
      }

      .cls-11 {
        filter: url(#Path_8);
      }

      .cls-12 {
        filter: url(#Path_7);
      }
    </style>
    <linearGradient id="linear-gradient" x1="0.982" y1="0.559" x2="-0.14" y2="0.559" gradientUnits="objectBoundingBox">
      <stop offset="0" stop-color="#296400"/>
      <stop offset="1" stop-color="#8cc346"/>
    </linearGradient>
    <filter id="Path_7" x="349.936" y="-0.002" width="2294.064" height="1243.143" filterUnits="userSpaceOnUse">
      <feOffset dx="6" dy="6" input="SourceAlpha"/>
      <feGaussianBlur stdDeviation="10" result="blur"/>
      <feFlood flood-opacity="0.4"/>
      <feComposite operator="in" in2="blur"/>
      <feComposite in="SourceGraphic"/>
    </filter>
    <linearGradient id="linear-gradient-2" x1="0" y1="0.442" x2="1.149" y2="0.442" xlink:href="#linear-gradient"/>
    <filter id="Path_8" x="0" y="178.928" width="2294.064" height="1243.142" filterUnits="userSpaceOnUse">
      <feOffset dx="6" dy="6" input="SourceAlpha"/>
      <feGaussianBlur stdDeviation="10" result="blur-2"/>
      <feFlood flood-opacity="0.4"/>
      <feComposite operator="in" in2="blur-2"/>
      <feComposite in="SourceGraphic"/>
    </filter>
    <radialGradient id="radial-gradient" cx="0.5" cy="0.5" r="0.5" gradientUnits="objectBoundingBox">
      <stop offset="0" stop-color="#347108"/>
      <stop offset="1" stop-color="#4f8a13"/>
    </radialGradient>
    <filter id="Ellipse_5" x="1002.362" y="391.396" width="627.276" height="627.276" filterUnits="userSpaceOnUse">
      <feOffset dx="12" dy="12" input="SourceAlpha"/>
      <feGaussianBlur stdDeviation="30" result="blur-3"/>
      <feFlood flood-opacity="0.4" result="color"/>
      <feComposite operator="out" in="SourceGraphic" in2="blur-3"/>
      <feComposite operator="in" in="color"/>
      <feComposite operator="in" in2="SourceGraphic"/>
    </filter>
    <filter id="Ellipse_6">
      <feOffset dx="12" dy="12" input="SourceAlpha"/>
      <feGaussianBlur stdDeviation="25" result="blur-4"/>
      <feFlood flood-color="#296400" result="color-2"/>
      <feComposite operator="out" in="SourceGraphic" in2="blur-4"/>
      <feComposite operator="in" in="color-2"/>
      <feComposite operator="in" in2="SourceGraphic"/>
    </filter>
    <filter id="Ellipse_7" x="1363.181" y="514.24" width="172.981" height="172.981" filterUnits="userSpaceOnUse">
      <feOffset dx="12" dy="12" input="SourceAlpha"/>
      <feGaussianBlur stdDeviation="10" result="blur-5"/>
      <feFlood flood-opacity="0.161"/>
      <feComposite operator="in" in2="blur-5"/>
      <feComposite in="SourceGraphic"/>
    </filter>
    <filter id="Path_16" x="31.91" y="1509.835" width="2618.09" height="353.771" filterUnits="userSpaceOnUse">
      <feOffset dx="12" dy="12" input="SourceAlpha"/>
      <feGaussianBlur stdDeviation="10" result="blur-6"/>
      <feFlood flood-opacity="0.4"/>
      <feComposite operator="in" in2="blur-6"/>
      <feComposite in="SourceGraphic"/>
    </filter>
  </defs>
  <g id="Group_17" data-name="Group 17" transform="translate(4189.2 -11821.104)">
    <g id="Group_13" data-name="Group 13" transform="translate(-4165.2 11845.104)">
      <g id="Group_8" data-name="Group 8">
        <g class="cls-12" transform="matrix(1, 0, 0, 1, -24, -24)">
          <path id="Path_7-2" data-name="Path 7" class="cls-1" d="M-11414.506-12467.937s-272.653,155.072-156.776,514.634c59.644,124.4,139.736,253.485,398.759,301.626s639.033-102.246,797.514-175.522,489.075-337.41,489.075-337.41-483.11-564.906-1124.7-651.814c-621.141-76.685-1109.363,357.859-1109.363,357.859s564.905-360.416,1155.375-222.385c544.457,135.477,881.867,516.34,881.867,516.34s-403.87,334-825.633,412.391c-382.568,66.459-516.34-90.317-518.9-90.317C-11738.282-12173.131-11414.506-12467.937-11414.506-12467.937Z" transform="translate(12493.93 12849.5)"/>
        </g>
        <g class="cls-11" transform="matrix(1, 0, 0, 1, -24, -24)">
          <path id="Path_8-2" data-name="Path 8" class="cls-2" d="M-10591.43-11999.918s272.655-155.073,156.776-514.636c-59.643-124.4-139.734-253.484-398.757-301.624s-639.034,102.244-797.515,175.521S-12120-12303.246-12120-12303.246s483.11,564.905,1124.7,651.814c621.141,76.684,1109.363-357.86,1109.363-357.86s-564.907,360.416-1155.375,222.385c-544.456-135.477-881.867-516.339-881.867-516.339s403.869-334,825.633-412.391c382.568-66.46,516.34,90.317,518.9,90.317C-10267.65-12294.726-10591.43-11999.918-10591.43-11999.918Z" transform="translate(12144 13028.43)"/>
        </g>
      </g>
      <g id="Group_9" data-name="Group 9" transform="translate(978.362 367.398)">
        <g data-type="innerShadowGroup">
          <ellipse id="Ellipse_5-2" data-name="Ellipse 5" class="cls-3" cx="313.638" cy="313.638" rx="313.638" ry="313.638"/>
          <g class="cls-10" transform="matrix(1, 0, 0, 1, -1002.36, -391.4)">
            <ellipse id="Ellipse_5-3" data-name="Ellipse 5" class="cls-4" cx="313.638" cy="313.638" rx="313.638" ry="313.638" transform="translate(1002.36 391.4)"/>
          </g>
        </g>
        <g data-type="innerShadowGroup">
          <ellipse id="Ellipse_6-2" data-name="Ellipse 6" class="cls-5" cx="172.795" cy="172.795" rx="172.795" ry="172.795" transform="translate(140.843 140.843)"/>
          <g class="cls-9" transform="matrix(1, 0, 0, 1, -1002.36, -391.4)">
            <ellipse id="Ellipse_6-3" data-name="Ellipse 6" class="cls-4" cx="172.795" cy="172.795" rx="172.795" ry="172.795" transform="translate(1143.2 532.24)"/>
          </g>
        </g>
        <g class="cls-8" transform="matrix(1, 0, 0, 1, -1002.36, -391.4)">
          <ellipse id="Ellipse_7-2" data-name="Ellipse 7" class="cls-4" cx="56.491" cy="56.491" rx="56.491" ry="56.491" transform="translate(1381.18 532.24)"/>
        </g>
      </g>
    </g>
    <g class="cls-7" transform="matrix(1, 0, 0, 1, -4189.2, 11821.1)">
      <path id="Path_16-2" data-name="Path 16" class="cls-6" d="M194.59,3.77,73.95-169.36,48.14,3.77H43.5L24.94-226.2H72.5l99.18,120.06L202.42-229.1h5.51L196.91,3.77Zm196.04,0q-44.66,0-74.53-4.06T268.83-13.63q-17.4-9.28-24.94-24.36t-7.54-36.83q0-28.13,10.44-48.43t27.4-31.175Q291.16-165.3,310.01-165.3a104.95,104.95,0,0,1,30.45,4.64,87.248,87.248,0,0,1,28.71,15.08q13.34,10.44,21.75,27.405t9.57,41.615L277.24-62.64a46.258,46.258,0,0,0,14.645,27.115Q303.92-24.36,328.28-15.95T391.79.29ZM352.06-100.34a64.511,64.511,0,0,0-6.67-21.46,47.837,47.837,0,0,0-13.34-16.385,28.831,28.831,0,0,0-17.98-6.235q-11.6,0-20.01,5.51t-13.05,21.025q-4.64,15.515-4.64,45.385v2.755a14.064,14.064,0,0,0,.29,2.755ZM570.72,3.77l-58-110.78L465.16,3.77h-3.48l-62.93-156.6,46.69-12.18,26.39,98.02,33.35-80.04,38.57-4.64,26.1,79.46,60.03-92.22h4.06L574.2,3.77ZM842.45,5.8q-16.53,0-34.655-8.265A119.511,119.511,0,0,1,773.72-26.39a121.981,121.981,0,0,1-25.81-37.7q-9.86-22.04-9.86-49.59a118.571,118.571,0,0,1,6.525-39.875A120.453,120.453,0,0,1,762.12-186.47a127.492,127.492,0,0,1,24.65-24.795,110.93,110.93,0,0,1,27.985-15.66,78.955,78.955,0,0,1,27.7-5.365,76.452,76.452,0,0,1,27.405,5.51,112.128,112.128,0,0,1,27.84,15.805A129.584,129.584,0,0,1,922.2-186.18a118.045,118.045,0,0,1,17.4,32.77,119.736,119.736,0,0,1,6.38,39.73q0,27.55-9.86,49.59a124.656,124.656,0,0,1-25.52,37.7A116.419,116.419,0,0,1,876.96-2.465Q858.98,5.8,842.45,5.8Zm11.6-24.94a35.8,35.8,0,0,0,24.07-8.99q10.44-8.99,16.385-25.085T900.45-90.48q0-29.29-6.67-51.185t-17.4-36.4q-10.73-14.5-22.765-21.75t-22.765-7.25a36.875,36.875,0,0,0-24.07,8.845q-10.73,8.845-16.965,24.505t-6.235,36.83q0,31.03,6.815,53.36t17.69,36.54Q818.96-32.77,831.14-25.955T854.05-19.14ZM981.36,61.48,971.5-161.53h50.75l-.87,21.17a124.271,124.271,0,0,1,27.55-17.4q15.95-7.54,31.03-7.54,27.55,0,41.035,16.965t13.485,48q0,30.45-14.5,52.055T1078.8-14.21q-26.68,12.47-62.93,16.24l-2.32,59.45Zm35.09-72.21q28.71-9.86,44.95-23.49t22.91-29.87a88.46,88.46,0,0,0,6.67-33.93q0-19.72-6.67-28.42t-19.43-8.7a131.383,131.383,0,0,0-21.9,1.74,113.566,113.566,0,0,0-22.185,6.38Zm234.9-19.72Q1236.56-12.76,1223.945-4.5T1201.18,3.77q-12.76,0-20.3-13.485t-8.41-39.005l-2.61-79.46h-31.03v-3.19l73.08-80.62h3.77l-2.61,55.68,32.77-11.02v39.15h-34.22l-3.48,73.08q0,2.03-.145,3.915t-.145,3.915q0,12.18,2.9,17.835t10.15,5.655q9.57,0,29-9.57Zm14.79-199.81,70.47,12.18-47.27,47.56ZM1278.61,0l-7.54-161.53h51.04L1314.57,0Zm220.4,3.77q-44.66,0-74.53-4.06t-47.27-13.34q-17.4-9.28-24.94-24.36t-7.54-36.83q0-28.13,8.99-48.43t24.505-31.175A59.439,59.439,0,0,1,1413.17-165.3q26.39,0,47.705,5.655T1496.4-145.87l-18.56,38.57q-17.69-17.69-31.61-27.4t-28.42-9.715q-8.41,0-15.37,6.815t-10.875,22.475q-3.915,15.66-3.915,42.63,0,19.43,11.31,32.48t36.1,22.475q24.8,9.425,65.1,18.125ZM1781.18,5.8q-49.59,0-84.39-6.96t-56.26-19.72q-21.46-12.76-31.465-30.6A79.509,79.509,0,0,1,1599.06-91.06q0-34.8,8.99-61.19t24.07-44.225q15.08-17.835,33.64-26.825a85.664,85.664,0,0,1,37.7-8.99,223.212,223.212,0,0,1,44.95,4.64,159.2,159.2,0,0,1,41.18,14.21l-16.24,47.27q-36.83-37.41-78.59-37.41-9.86,0-18.56,8.12t-15.08,21.605a141.818,141.818,0,0,0-10.005,29.58,144.206,144.206,0,0,0-3.625,31.755,119.326,119.326,0,0,0,6.235,39.585,79.03,79.03,0,0,0,21.315,31.9q15.08,14.065,41.18,24.65T1781.76,2.03Zm189.95-86.42a75.819,75.819,0,0,1-7.83,34.655,85.634,85.634,0,0,1-20.59,26.535,97.837,97.837,0,0,1-27.55,16.965,76.751,76.751,0,0,1-28.71,5.945,76.751,76.751,0,0,1-28.71-5.945,99.922,99.922,0,0,1-27.695-16.965,86.5,86.5,0,0,1-20.88-26.535,74.682,74.682,0,0,1-7.975-34.655,75.565,75.565,0,0,1,7.975-34.8,87.692,87.692,0,0,1,20.88-26.825,98.206,98.206,0,0,1,27.695-17.11,76.751,76.751,0,0,1,28.71-5.945,76.751,76.751,0,0,1,28.71,5.945,96.186,96.186,0,0,1,27.55,17.11,86.833,86.833,0,0,1,20.59,26.825A76.719,76.719,0,0,1,1971.13-80.62ZM1895.15-17.4q15.37,0,23.49-11.165t8.12-40.455q0-26.1-7.975-42.63T1899.5-135.865q-11.31-7.685-21.75-7.685-10.15,0-17.4,4.64t-11.02,15.805q-3.77,11.165-3.77,30.885,0,17.69,4.785,31.61a81.354,81.354,0,0,0,12.325,23.635,56.427,56.427,0,0,0,16.095,14.645Q1887.32-17.4,1895.15-17.4ZM2003.61,0l-10.44-161.53h51.04l-.87,28.71a88.374,88.374,0,0,1,16.24-16.1,86.738,86.738,0,0,1,20.735-11.89,59.748,59.748,0,0,1,22.475-4.5v42.63a48.811,48.811,0,0,0-12.905-4.785,66.659,66.659,0,0,0-14.645-1.595,72.663,72.663,0,0,0-17.69,2.175,43.494,43.494,0,0,0-14.5,6.235L2039.28,0Zm224.46,0-4.64-99.47q-.87-19.14-5.075-25.375t-13.2-6.235q-6.96,0-19.43,3.625a94.9,94.9,0,0,0-24.36,11.165L2155.86,0h-35.67l-7.54-161.53h50.75l-1.45,30.74a106.293,106.293,0,0,1,20.735-17.98,105.367,105.367,0,0,1,24.5-12.18,75.471,75.471,0,0,1,24.36-4.35q21.75,0,29.58,11.745t7.83,34.075q0,2.03-.145,3.915t-.145,4.205L2264.03,0Zm218.95,3.77q-44.66,0-74.53-4.06t-47.27-13.34q-17.4-9.28-24.94-24.36t-7.54-36.83q0-28.13,10.44-48.43t27.405-31.175Q2347.55-165.3,2366.4-165.3a104.948,104.948,0,0,1,30.45,4.64,87.247,87.247,0,0,1,28.71,15.08q13.34,10.44,21.75,27.405t9.57,41.615L2333.63-62.64a46.259,46.259,0,0,0,14.645,27.115q12.035,11.165,36.4,19.575T2448.18.29Zm-38.57-104.11a64.508,64.508,0,0,0-6.67-21.46,47.836,47.836,0,0,0-13.34-16.385,28.831,28.831,0,0,0-17.98-6.235q-11.6,0-20.01,5.51t-13.05,21.025q-4.64,15.515-4.64,45.385v2.755a14.062,14.062,0,0,0,.29,2.755ZM2483.85,0l-10.44-161.53h51.04l-.87,28.71a88.38,88.38,0,0,1,16.24-16.1,86.732,86.732,0,0,1,20.735-11.89,59.75,59.75,0,0,1,22.475-4.5v42.63a48.811,48.811,0,0,0-12.905-4.785,66.659,66.659,0,0,0-14.645-1.595,72.663,72.663,0,0,0-17.69,2.175,43.492,43.492,0,0,0-14.5,6.235L2519.52,0Z" transform="translate(24.97 1760.13)"/>
    </g>
  </g>
</svg>
